<svg width="475" height="278" viewBox="0 0 475 278" fill="none" xmlns="http://www.w3.org/2000/svg">
<path opacity="0.1" d="M438.594 222.805C438.065 223.988 437.537 225.155 437.011 226.307C436.19 228.095 435.38 229.849 434.58 231.568C434.224 232.33 433.868 233.078 433.522 233.825C429.598 242.139 425.935 249.492 422.824 255.539C420.001 261.018 415.81 265.609 410.689 268.831C405.567 272.053 399.705 273.786 393.716 273.851L324.538 274.631H323.808L317.878 274.698L312.805 274.754L297.25 274.929H296.62L288.701 275.019H288.459L239.649 275.568L196.08 276.041L191.012 276.098L159.536 276.453H159.5L139.086 276.68H138.867L74.319 277.404L55.0093 277.622C50.8886 277.67 46.7852 277.06 42.8432 275.814C35.9834 273.665 29.8184 269.616 25.0115 264.103C16.7183 254.626 10.6741 243.568 6.61413 231.568C6.02719 229.836 5.47979 228.083 4.97192 226.307C-9.0827 177.026 8.05107 113.446 38.8882 70.8988C40.1807 69.1197 41.4945 67.3848 42.8295 65.694L42.8615 65.6561C52.3453 53.5809 62.9786 43.4929 74.3053 36.3196C94.3768 23.5867 116.615 20 138.489 30.6889C156.995 39.7359 174.275 43.9897 191.026 45.1442C192.718 45.2578 194.411 45.343 196.094 45.395C234.517 46.6489 270.527 32.2882 312.814 23.0188C314.497 22.6498 316.185 22.2854 317.887 21.94C348.053 15.7131 381.518 12.4293 421.314 19.3329C425.449 20.0335 429.529 21.0456 433.522 22.3611C435.276 22.9479 436.967 23.5788 438.594 24.2538C457.589 32.2693 467.949 47.0795 472.351 65.6372C472.767 67.3595 473.128 69.1118 473.432 70.8941C481.237 115.533 458.378 178.852 438.594 222.805Z" fill="#6C63FF"/>
<g opacity="0.1">
<path opacity="0.1" d="M68.8304 15.6345V277.555L49.6608 277.791C45.57 277.844 41.4964 277.182 37.583 275.828V47.4995H37.6147C47.0297 34.368 57.5859 23.4106 68.8304 15.6345Z" fill="#6C63FF"/>
<path opacity="0.1" d="M465.083 53.194H33.6702C34.9533 51.2616 36.2575 49.3771 37.5829 47.5406V47.4995H464.01C464.424 49.36 464.781 51.2581 465.083 53.194Z" fill="#6C63FF"/>
<path opacity="0.1" d="M310.645 0V274.579L305.609 274.641V1.17181C307.28 0.770928 308.955 0.375185 310.645 0Z" fill="#6C63FF"/>
<path opacity="0.1" d="M189.735 25.4766V276.07L184.704 276.131V25.2042C186.384 25.3275 188.064 25.3995 189.735 25.4766Z" fill="#6C63FF"/>
<path opacity="0.1" d="M428.904 221.997C428.089 223.939 427.285 225.844 426.491 227.712H1.6303C1.04762 225.831 0.504185 223.926 0 221.997H428.904Z" fill="#6C63FF"/>
</g>
<path d="M103.131 145.457H95.1982V171.854H103.131V145.457Z" fill="#3F3D56"/>
<path d="M332.202 143.637H324.269V171.854H332.202V143.637Z" fill="#3F3D56"/>
<path d="M385.708 269.103V274.886L319.737 275.509L319.034 275.522L293.96 275.758L293.361 275.767L285.74 275.834H285.514L239.058 276.274L162.8 276.999H162.735L143.345 277.186L143.137 277.19L56.9819 278V271.327L77.2396 258.871L117.885 258.524L118.754 258.52L119.04 258.515L119.909 258.502L139.424 258.337L140.297 258.333L140.575 258.329L141.443 258.324L147.701 258.271L147.866 258.266L163.303 258.133H163.429L283.89 257.092L286.839 257.07H287.134L289.383 257.047L305.733 256.91L306.601 256.896L307.405 256.887H307.822L312.907 256.847L313.914 256.834L315.265 256.825L319.498 256.785L326.216 256.727L327.085 256.718L328.596 256.709H328.878L361.321 256.425L385.708 269.103Z" fill="#65617D"/>
<path opacity="0.2" d="M385.708 269.103V274.886L319.737 275.509L319.034 275.522L293.96 275.758L293.361 275.767L285.74 275.834H285.514L239.058 276.274L162.8 276.999H162.735L143.345 277.186L143.137 277.19L56.9819 278V271.327L77.2396 258.871L117.885 258.524L118.754 258.52L119.04 258.515L119.909 258.502L139.424 258.337L140.297 258.333L140.575 258.329L141.443 258.324L147.701 258.271L147.866 258.266L163.303 258.133H163.429L283.89 257.092L286.839 257.07H287.134L289.383 257.047L305.733 256.91L306.601 256.896L307.405 256.887H307.822L312.907 256.847L313.914 256.834L315.265 256.825L319.498 256.785L326.216 256.727L327.085 256.718L328.596 256.709H328.878L361.321 256.425L385.708 269.103Z" fill="black"/>
<path d="M132.881 245.584V256.953C132.881 257.492 132.729 258.019 132.443 258.475C132.156 258.93 131.747 259.294 131.262 259.525C130.901 259.701 130.507 259.796 130.106 259.804L113.965 260.147C113.534 260.158 113.106 260.067 112.716 259.883C112.223 259.656 111.805 259.291 111.512 258.833C111.219 258.375 111.064 257.841 111.065 257.297V245.584H132.881Z" fill="#3F3D56"/>
<path opacity="0.1" d="M132.881 245.584V256.953C132.881 257.492 132.729 258.019 132.443 258.475C132.156 258.93 131.747 259.294 131.262 259.525C130.901 259.701 130.507 259.796 130.106 259.804L113.965 260.147C113.534 260.158 113.106 260.067 112.716 259.883C112.223 259.656 111.805 259.291 111.512 258.833C111.219 258.375 111.064 257.841 111.065 257.297V245.584H132.881Z" fill="black"/>
<path d="M133.873 245.584V256.953C133.873 257.492 133.721 258.019 133.434 258.475C133.148 258.93 132.739 259.294 132.254 259.525C131.893 259.701 131.499 259.796 131.098 259.804L114.956 260.147C114.525 260.158 114.098 260.067 113.708 259.883C113.214 259.656 112.797 259.291 112.504 258.833C112.211 258.375 112.056 257.841 112.056 257.297V245.584H133.873Z" fill="#3F3D56"/>
<path d="M326.253 245.584H305.428V260.148H326.253V245.584Z" fill="#3F3D56"/>
<path opacity="0.1" d="M326.253 245.584H305.428V260.148H326.253V245.584Z" fill="black"/>
<path d="M325.261 245.584H304.436V260.148H325.261V245.584Z" fill="#3F3D56"/>
<path opacity="0.1" d="M103.131 145.457V148.188L95.1982 147.954V145.457H103.131Z" fill="black"/>
<path d="M159.637 71.455L149.342 146.49C149.276 146.969 149.039 147.407 148.676 147.72C148.312 148.033 147.848 148.2 147.371 148.187L64.94 146.019L63.3753 145.977C63.1028 145.971 62.8348 145.906 62.5887 145.787C62.3426 145.669 62.1239 145.499 61.9469 145.288C61.7698 145.078 61.6385 144.832 61.5614 144.567C61.4843 144.302 61.4632 144.023 61.4994 143.749L73.0569 65.2006C73.1314 64.714 73.383 64.2735 73.762 63.966C74.141 63.6585 74.6199 63.5064 75.1041 63.5397L157.833 69.2222C158.1 69.2379 158.361 69.3096 158.599 69.4327C158.837 69.5558 159.048 69.7277 159.217 69.9375C159.387 70.1473 159.511 70.3904 159.584 70.6516C159.656 70.9128 159.674 71.1864 159.637 71.455Z" fill="#65617D"/>
<path d="M79.0433 68.9967L70.407 138.459L145.467 140.906L154.697 73.8898L79.0433 68.9967Z" fill="#6C63FF"/>
<path d="M261.403 68.0865H174.923C173.611 68.0865 172.547 69.1768 172.547 70.5217V144.843C172.547 146.187 173.611 147.278 174.923 147.278H261.403C262.715 147.278 263.779 146.187 263.779 144.843V70.5217C263.779 69.1768 262.715 68.0865 261.403 68.0865Z" fill="#65617D"/>
<path d="M259.812 73.5479H176.514V139.085H259.812V73.5479Z" fill="#6C63FF"/>
<path opacity="0.1" d="M332.202 143.637V146.113L324.269 146.368V143.637H332.202Z" fill="black"/>
<path d="M370.874 142.181C370.886 142.371 370.86 142.561 370.799 142.741C370.737 142.92 370.64 143.085 370.514 143.226C370.388 143.366 370.235 143.479 370.065 143.558C369.895 143.636 369.711 143.679 369.524 143.684L285.322 145.457C284.972 145.464 284.632 145.337 284.371 145.099C284.11 144.862 283.947 144.533 283.914 144.179L276.676 67.5397C276.659 67.3496 276.679 67.1577 276.736 66.9758C276.793 66.7938 276.886 66.6256 277.009 66.4812C277.131 66.3369 277.282 66.2194 277.45 66.136C277.619 66.0525 277.803 66.0048 277.99 65.9958L361.554 61.7625L362.454 61.7167C362.811 61.6975 363.162 61.8205 363.432 62.0599C363.703 62.2992 363.871 62.6361 363.902 62.9995L370.874 142.181Z" fill="#65617D"/>
<path d="M281.628 70.972L357.525 67.1763L363.935 136.355L288.638 138.175L281.628 70.972Z" fill="#6C63FF"/>
<path opacity="0.1" d="M370.874 142.135C370.886 142.325 370.861 142.515 370.802 142.694C370.743 142.874 370.65 143.038 370.529 143.179C370.408 143.319 370.262 143.432 370.1 143.511C369.937 143.589 369.761 143.632 369.582 143.637L361.952 61.7625L362.813 61.7167C363.155 61.6975 363.491 61.8205 363.75 62.0597C364.009 62.2989 364.17 62.6356 364.2 62.9988L370.874 142.135Z" fill="black"/>
<path opacity="0.1" d="M75.3653 63.5407L65.0028 146.367L63.4096 146.326C63.1322 146.32 62.8594 146.254 62.6088 146.135C62.3582 146.016 62.1355 145.845 61.9553 145.634C61.7751 145.423 61.6413 145.176 61.5628 144.91C61.4843 144.644 61.4628 144.364 61.4997 144.089L73.2671 65.213C73.342 64.7211 73.5998 64.2755 73.9887 63.9655C74.3777 63.6555 74.8693 63.5037 75.3653 63.5407Z" fill="black"/>
<path opacity="0.1" d="M103.131 163.662H95.1982V171.854H103.131V163.662Z" fill="black"/>
<path opacity="0.1" d="M133.873 245.584V247.763L112.056 248.315V245.584H133.873Z" fill="black"/>
<path d="M170.564 166.398V244.132C170.558 244.607 170.376 245.061 170.056 245.401C169.735 245.741 169.3 245.94 168.841 245.958L83.1046 248.315H83.0823C82.6154 248.309 82.1693 248.115 81.8392 247.773C81.509 247.432 81.321 246.972 81.3152 246.489V166.398C81.321 165.916 81.509 165.455 81.8392 165.114C82.1693 164.773 82.6154 164.578 83.0823 164.572H168.797C169.263 164.578 169.71 164.773 170.04 165.114C170.37 165.455 170.558 165.916 170.564 166.398Z" fill="#65617D"/>
<path opacity="0.1" d="M83.2985 164.572V248.315H83.2737C82.7563 248.309 82.2618 248.115 81.8959 247.773C81.53 247.432 81.3216 246.972 81.3152 246.489V166.398C81.3216 165.916 81.53 165.455 81.8959 165.114C82.2618 164.773 82.7563 164.578 83.2737 164.572H83.2985Z" fill="black"/>
<path d="M87.2651 170.034H166.597V238.281L87.2651 240.123V170.034Z" fill="#D4DFEC"/>
<path opacity="0.1" d="M332.202 163.662H324.269V171.854H332.202V163.662Z" fill="black"/>
<path opacity="0.1" d="M325.261 245.584V248.315L304.436 247.778V245.584H325.261Z" fill="black"/>
<path d="M353.027 166.398V246.489C353.021 246.976 352.83 247.44 352.495 247.782C352.16 248.123 351.709 248.315 351.238 248.315L265.501 245.958C265.042 245.94 264.607 245.741 264.286 245.401C263.966 245.061 263.784 244.607 263.779 244.132V166.398C263.784 165.916 263.972 165.455 264.303 165.114C264.633 164.773 265.079 164.578 265.545 164.572H351.243C351.712 164.574 352.163 164.766 352.497 165.107C352.831 165.449 353.021 165.912 353.027 166.398Z" fill="#65617D"/>
<path opacity="0.1" d="M353.027 166.398V246.489C353.021 246.976 352.809 247.44 352.438 247.782C352.066 248.123 351.566 248.315 351.044 248.315V164.572C351.566 164.572 352.066 164.764 352.438 165.106C352.809 165.447 353.021 165.912 353.027 166.398Z" fill="black"/>
<path d="M347.077 170.034H267.745V238.281L347.077 240.123V170.034Z" fill="#D4DFEC"/>
<path d="M261.795 166.398V244.132C261.79 244.607 261.608 245.061 261.288 245.401C260.967 245.741 260.532 245.94 260.073 245.958L174.336 248.315C173.866 248.315 173.414 248.123 173.079 247.782C172.744 247.44 172.553 246.976 172.547 246.489V166.398C172.553 165.916 172.741 165.455 173.071 165.114C173.401 164.773 173.847 164.578 174.314 164.572H260.028C260.495 164.578 260.941 164.773 261.271 165.114C261.602 165.455 261.79 165.916 261.795 166.398Z" fill="#65617D"/>
<path d="M177.505 170.034H257.829V238.281L177.505 240.123V170.034Z" fill="#D4DFEC"/>
<path opacity="0.1" d="M385.708 269.103V274.886L319.737 275.509L319.034 275.522L293.96 275.758L293.361 275.767L285.74 275.834H285.514L239.058 276.274L162.8 276.999H162.735L143.345 277.186L143.137 277.19L56.9819 278V271.327L144.922 270.736H145.13L162.93 270.611H163.012L285.94 269.779H286.066L286.139 269.775H286.344L288.424 269.761H289.058L321.405 269.539L323.316 269.53L323.741 269.525L385.708 269.103Z" fill="black"/>
<path d="M218.163 171.854C230.759 171.854 240.971 161.259 240.971 148.188C240.971 135.117 230.759 124.522 218.163 124.522C205.566 124.522 195.355 135.117 195.355 148.188C195.355 161.259 205.566 171.854 218.163 171.854Z" fill="#FBBEBE"/>
<path d="M240.971 196.721C240.971 196.721 196.339 202.213 200.6 196.721C202.143 194.735 202.569 188.849 202.484 182.145C202.457 180.109 202.385 177.999 202.282 175.898C201.789 165.83 200.6 155.991 200.6 155.991C200.6 155.991 239.625 137.228 235.139 152.101C233.345 158.11 233.933 166.549 235.296 174.47C235.696 176.781 236.158 179.047 236.642 181.198C237.824 186.444 239.269 191.625 240.971 196.721Z" fill="#FBBEBE"/>
<path opacity="0.1" d="M240.971 196.713C240.971 196.713 196.339 202.223 200.6 196.713C202.143 194.72 202.569 188.815 202.484 182.088C209.289 179.112 217.946 181.33 217.946 181.33C227.061 179.47 232.906 179.833 236.642 181.137C237.824 186.401 239.269 191.6 240.971 196.713Z" fill="black"/>
<path d="M156.877 277.443V277.056L235.204 276.177L282.925 275.717H283.059L283.01 276.398L283.077 275.717H283.162V275.639L283.773 269.45L284.005 267.108L284.076 266.377L284.139 265.765L286.895 256.282L289.651 246.813L291.97 238.839L295.512 226.655C295.512 226.655 293.505 221.824 292.39 220.444C291.275 219.063 290.16 209.631 290.16 209.631C290.16 209.631 280.642 200.277 276.481 199.2C274.737 198.74 271.294 198.128 267.637 197.36C266.267 197.075 264.863 196.771 263.511 196.44C262.748 196.26 261.999 196.071 261.281 195.883C259.884 195.523 258.506 195.083 257.156 194.567C256.448 194.301 255.774 193.948 255.149 193.513C251.871 191.033 243.655 190.753 243.339 190.753C243.338 190.742 243.338 190.731 243.339 190.72V190.679C243.35 190.486 243.35 190.292 243.339 190.099C243.339 189.915 243.339 189.699 243.299 189.455C243.299 189.381 243.299 189.303 243.267 189.225C243.245 189.059 243.218 188.884 243.178 188.7C243.165 188.618 243.147 188.537 243.125 188.457C242.995 187.902 242.808 187.364 242.567 186.851C242.536 186.777 242.496 186.699 242.46 186.625C242.241 186.2 241.988 185.795 241.702 185.415C241.644 185.337 241.581 185.254 241.515 185.176C241.149 184.732 240.743 184.325 240.301 183.961C240.181 183.865 240.056 183.763 239.927 183.671C239.855 183.611 239.779 183.556 239.699 183.506L239.302 183.239L238.932 183.018C238.607 182.834 238.263 182.655 237.889 182.484C237.773 182.429 237.648 182.378 237.523 182.328C237.398 182.277 237.202 182.199 237.037 182.135H237.01L236.675 181.997C236.421 181.909 236.163 181.831 235.89 181.753L235.476 181.642L235.03 181.536L234.584 181.44C234.138 181.348 233.66 181.265 233.161 181.201L232.653 181.136L232.131 181.081L231.591 181.035L230.824 180.989L229.932 180.957C225.998 180.956 222.075 181.387 218.229 182.24C215.557 181.627 212.82 181.367 210.085 181.467H209.697L209.251 181.495H208.966L208.39 181.55C208.198 181.55 208.002 181.592 207.81 181.619C207.619 181.647 207.418 181.67 207.226 181.702L206.932 181.753C206.642 181.803 206.348 181.859 206.04 181.923C205.942 181.941 205.844 181.964 205.745 181.992C205.357 182.079 204.969 182.185 204.586 182.305C204.394 182.36 204.202 182.425 204.011 182.494C203.912 182.521 203.819 182.558 203.725 182.595L203.44 182.701L203.159 182.816L202.824 182.954C202.655 183.027 202.49 183.105 202.325 183.188C202.231 183.23 202.137 183.276 202.048 183.326C201.959 183.377 201.865 183.418 201.781 183.469C200.772 184.007 199.84 184.685 199.011 185.484L198.783 185.71L198.56 185.944C198.485 186.023 198.413 186.105 198.342 186.188C198.051 186.516 197.78 186.862 197.53 187.223C197.459 187.32 197.392 187.417 197.325 187.518C197.042 187.949 196.786 188.397 196.558 188.861C196.5 188.972 196.446 189.087 196.393 189.197C196.029 189.975 195.73 190.783 195.501 191.613C195.418 191.92 195.342 192.226 195.273 192.533C195.273 192.533 185.832 196.831 178 199.941C175.917 200.769 173.955 201.519 172.313 202.085C171.836 202.251 171.39 202.403 170.975 202.545C170.075 202.881 169.14 203.103 168.188 203.208C167.739 203.215 167.292 203.258 166.85 203.337C163.251 203.939 157.083 206.557 156.409 209.185C156.354 209.395 156.339 209.613 156.365 209.829C156.365 209.829 156.365 209.861 156.365 209.879C156.811 213.1 153.689 212.64 153.689 212.64C153.689 212.64 152.574 221.152 151.013 223.453C149.884 225.109 149.113 228.804 149.014 231.592C148.958 232.461 149.025 233.334 149.211 234.183C149.211 234.206 149.211 234.229 149.211 234.247C149.389 234.864 148.961 236.548 148.234 238.706C147.445 241.075 146.294 244.02 145.188 246.799C143.52 250.995 141.95 254.805 141.852 255.642C141.812 256.015 141.696 256.682 141.535 257.543C140.884 261.049 139.439 267.725 138.725 270.426C138.195 272.441 137.423 275.202 136.892 277.098C136.892 277.153 136.861 277.208 136.848 277.259L156.842 277.056V277.443H156.904H156.877Z" fill="#6C63FF"/>
<path opacity="0.1" d="M163.622 222.828C163.622 222.828 189.149 236.107 198.33 234.531L163.622 222.828Z" fill="black"/>
<path opacity="0.1" d="M216.18 217.367C216.18 217.367 240.657 225.286 248.817 226.385C256.976 227.485 216.18 217.367 216.18 217.367Z" fill="black"/>
<path opacity="0.1" d="M243.946 190.93C230.801 193.365 206.052 192.841 195.355 192.472C199.276 178.336 218.395 183.142 218.395 183.142C242.06 178.391 243.873 188.249 243.946 190.93Z" fill="black"/>
<path d="M243.946 190.02C230.801 192.455 206.052 191.931 195.355 191.561C199.276 177.426 218.395 182.232 218.395 182.232C242.06 177.481 243.873 187.339 243.946 190.02Z" fill="#6C63FF"/>
<path d="M312.37 252.382C312.37 252.382 327.923 249.868 328.228 257.05C328.533 264.233 320.296 269.25 320.296 269.25L312.37 252.382Z" fill="#FBBEBE"/>
<path opacity="0.1" d="M235.838 174.127C235.183 174.424 234.513 174.687 233.831 174.914C229.022 176.595 224.173 178.291 219.109 178.905C214.046 179.52 208.733 178.978 204.316 176.419C203.852 176.154 203.405 175.859 202.978 175.538C202.487 165.592 201.305 155.873 201.305 155.873C201.305 155.873 240.117 137.339 235.655 152.031C233.88 157.966 234.482 166.302 235.838 174.127Z" fill="black"/>
<path d="M212.308 111.366C211.67 111.539 211.002 111.557 210.356 111.417C209.711 111.278 209.106 110.986 208.59 110.563L209.519 111.89C208.972 111.955 208.417 111.896 207.893 111.717C207.37 111.539 206.891 111.245 206.49 110.857C206.406 112.044 206.454 113.238 206.633 114.414C205.095 114.49 203.581 114.002 202.361 113.037C202.337 113.451 202.438 113.862 202.649 114.216C202.86 114.57 203.171 114.849 203.541 115.015C201.996 114.825 200.437 115.22 199.154 116.124C197.872 117.028 196.953 118.381 196.57 119.93L198.903 120.15C197.07 120.552 195.424 121.583 194.238 123.073C193.523 123.991 192.978 125.166 193.291 126.286C193.603 127.406 195.114 128.121 195.936 127.323C194.766 128.757 193.916 130.436 193.445 132.242C192.975 134.049 192.894 135.94 193.21 137.782C193.422 138.566 193.492 139.385 193.416 140.195C193.268 140.953 192.804 141.609 192.571 142.348C192.124 143.688 192.549 145.143 192.947 146.478L195.042 153.554C195.802 156.111 196.557 158.671 197.549 161.145C198.251 162.709 198.848 164.32 199.336 165.968C199.899 168.189 199.921 170.621 201.123 172.563C201.947 173.784 203.048 174.781 204.332 175.468C208.751 178.065 214.09 178.616 219.149 177.992C224.207 177.368 229.059 175.647 233.872 173.939C234.941 173.609 235.967 173.146 236.928 172.563C240.257 170.323 240.998 165.743 241.62 161.709C242.312 157.212 243.237 152.724 244.877 148.493C245.851 145.973 247.111 143.417 246.897 140.719C246.624 137.135 243.863 134.23 243.179 130.705C242.95 129.527 242.961 128.313 243.21 127.139C243.422 126.44 243.541 125.715 243.563 124.982C243.487 123.505 242.308 122.367 241.2 121.417C238.796 119.355 236.314 117.406 233.755 115.57C233.626 114.652 234.841 114.258 235.391 113.533C236.168 112.509 235.364 110.885 234.184 110.407C233.005 109.93 231.682 110.242 230.453 110.559C230.533 109.913 230.408 109.258 230.097 108.69C229.785 108.123 229.303 107.675 228.724 107.411C228.144 107.148 227.497 107.084 226.878 107.228C226.26 107.373 225.704 107.718 225.292 108.214C224.966 107.445 224.445 106.781 223.783 106.29C223.121 105.799 222.343 105.5 221.53 105.424C218.568 105.185 218.51 107.512 216.615 108.792C214.72 110.072 213.157 108.384 211.7 107.154C211.432 107.849 211.348 108.604 211.454 109.344C211.561 110.083 211.855 110.781 212.308 111.366Z" fill="#3F3D56"/>
<path d="M324.269 266.734C324.269 266.734 323.87 267.716 323.135 269.139C322.023 271.328 320.669 273.376 319.1 275.242L318.979 275.377H318.253L292.369 275.622H291.75L291.674 275.529L286.653 269.37L284.761 267.049L284.685 266.951L284.523 266.757L284.434 266.645L284.317 266.502L280.637 261.988L281.982 256.195L284.272 246.435L284.331 246.199L284.779 244.345L285.097 242.955L286.164 238.422L289.822 222.828L296.323 226.304L303.177 238.816L306.857 245.536H308.875C309.256 245.536 310.13 246.296 311.009 247.172C311.323 247.483 311.636 247.812 311.905 248.099C312.703 248.952 313.335 249.684 313.335 249.684C313.335 249.684 316.603 249.758 317.482 252.418C317.527 252.547 317.565 252.678 317.594 252.812C317.886 253.858 318.265 254.875 318.728 255.852C319.307 257.154 320.033 258.633 320.768 260.111C322.135 262.822 323.525 265.403 324.036 266.34L324.099 266.455L324.269 266.734Z" fill="#6C63FF"/>
<path opacity="0.1" d="M285.583 245.558L285.538 246.226V246.273L285.462 247.347L284.865 255.992L284.143 266.407L283.937 269.34L283.488 275.617V275.696L235.497 276.163L156.743 277.05V277.443H156.681V277.05V276.92L156.882 270.213L157.268 257.108L157.6 245.997L157.631 244.89C157.651 244.222 157.801 243.565 158.073 242.96C158.344 242.354 158.732 241.812 159.211 241.368C159.69 240.923 160.252 240.585 160.861 240.374C161.47 240.163 162.114 240.084 162.753 240.14C164.87 240.327 167.62 240.556 170.907 240.799L172.253 240.902C191.238 242.275 226.325 244.05 261.731 241.836C262.475 241.794 263.224 241.747 263.973 241.691C269.463 241.331 274.949 240.869 280.38 240.29C281.067 240.215 281.761 240.298 282.413 240.532C283.066 240.767 283.661 241.148 284.157 241.648C284.653 242.148 285.038 242.755 285.284 243.426C285.53 244.098 285.632 244.818 285.583 245.535V245.558Z" fill="black"/>
<path d="M156.681 277.424V277.031L235.481 276.138L283.492 275.67H283.626V275.591L284.075 269.306L284.268 266.501L285.004 255.928L285.583 247.558V247.352C285.609 246.966 285.593 246.579 285.533 246.197C285.536 246.182 285.536 246.166 285.533 246.15C285.41 245.361 285.102 244.616 284.636 243.981C284.142 243.32 283.494 242.802 282.755 242.475C282.015 242.148 281.208 242.022 280.409 242.11C274.975 242.69 269.488 243.153 263.996 243.513C263.246 243.569 262.497 243.616 261.752 243.658C226.332 245.851 191.23 244.074 172.237 242.723L170.891 242.62C167.602 242.377 164.851 242.152 162.733 241.961C161.568 241.858 160.408 242.209 159.477 242.946C158.545 243.682 157.909 244.752 157.69 245.949C157.645 246.202 157.618 246.459 157.609 246.716L157.304 257.078L156.887 270.204L156.69 276.919V277.05V277.443L156.681 277.424Z" fill="#3F3D56"/>
<path opacity="0.1" d="M285.588 248.839L285.036 255.865L284.216 266.339L284.01 268.96L283.562 274.832L283.535 275.125V275.203L283.467 275.882L283.517 275.203H283.387L235.421 275.662L156.681 276.532V276.404L156.9 269.822L157.348 256.961L157.635 248.413C157.649 247.926 157.782 247.451 158.022 247.031C158.262 246.611 158.6 246.259 159.007 246.006C159.515 245.688 160.108 245.544 160.702 245.594C161.643 245.672 162.8 245.763 164.149 245.864C166.341 246.029 169.044 246.222 172.191 246.423C178.019 246.799 185.33 247.203 193.708 247.533C217.019 248.449 248.488 248.756 278.379 246.08C279.724 245.96 281.114 245.828 282.472 245.695C283.01 245.64 283.552 245.745 284.032 245.997C284.168 246.067 284.297 246.149 284.418 246.245C284.808 246.534 285.117 246.923 285.314 247.372C285.36 247.462 285.398 247.555 285.426 247.652C285.561 248.032 285.616 248.436 285.588 248.839Z" fill="black"/>
<path opacity="0.1" d="M140.358 256.34V257.759C140.358 258.275 140.215 258.781 139.946 259.217C139.677 259.653 139.293 260.002 138.838 260.224L121.425 260.566C120.962 260.349 120.569 260 120.294 259.56C120.02 259.121 119.874 258.61 119.874 258.088V256.754L140.358 256.34Z" fill="black"/>
<path d="M140.575 261.06L117.885 261.505V257.648L140.575 257.203V261.06Z" fill="#3F3D56"/>
<path opacity="0.1" d="M140.575 261.06L117.885 261.505V257.648L140.575 257.203V261.06Z" fill="black"/>
<path d="M141.443 261.06L118.754 261.505V257.648L141.443 257.203V261.06Z" fill="#3F3D56"/>
<g opacity="0.1">
<path opacity="0.1" d="M212.216 110.002C211.778 109.42 211.487 108.735 211.369 108.01C211.261 108.719 211.326 109.444 211.557 110.122C211.78 110.101 212 110.061 212.216 110.002Z" fill="black"/>
<path opacity="0.1" d="M206.524 113.05C206.44 112.488 206.385 111.921 206.359 111.352C206.359 111.916 206.359 112.486 206.359 113.055L206.524 113.05Z" fill="black"/>
<path opacity="0.1" d="M243.045 128.369C243.07 127.96 243.124 127.553 243.207 127.152C243.419 126.454 243.539 125.73 243.565 124.999C243.555 124.835 243.531 124.672 243.493 124.513C243.417 124.935 243.296 125.357 243.207 125.775C243.028 126.626 242.973 127.501 243.045 128.369Z" fill="black"/>
<path opacity="0.1" d="M233.725 114.184L234.213 114.547C234.625 114.242 235.01 113.901 235.365 113.528C235.533 113.289 235.638 113.009 235.668 112.715C235.698 112.422 235.652 112.126 235.535 111.857C235.49 111.962 235.433 112.06 235.365 112.151C234.814 112.876 233.595 113.275 233.725 114.184Z" fill="black"/>
<path opacity="0.1" d="M196.904 118.6C196.741 118.935 196.61 119.285 196.515 119.647C197.215 119.246 197.97 118.954 198.755 118.779L196.904 118.6Z" fill="black"/>
<path opacity="0.1" d="M203.084 113.605C202.789 113.439 202.508 113.251 202.241 113.041C202.23 113.222 202.243 113.404 202.281 113.582C202.549 113.569 202.817 113.577 203.084 113.605Z" fill="black"/>
<path opacity="0.1" d="M246.894 140.653C246.711 142.879 245.698 145.023 244.878 147.134C243.233 151.367 242.306 155.856 241.611 160.359C240.988 164.394 240.267 168.975 236.906 171.211C235.946 171.799 234.918 172.261 233.846 172.588C229.015 174.3 224.144 176.017 219.058 176.642C213.972 177.266 208.636 176.72 204.199 174.121C202.913 173.434 201.809 172.437 200.982 171.216C199.786 169.274 199.763 166.841 199.19 164.619C198.701 162.969 198.102 161.356 197.397 159.79C196.407 157.32 195.645 154.741 194.888 152.202C194.186 149.843 193.485 147.482 192.786 145.119C192.556 144.408 192.385 143.679 192.275 142.939C192.101 144.114 192.441 145.344 192.786 146.496C193.485 148.862 194.186 151.223 194.888 153.579C195.645 156.136 196.407 158.698 197.397 161.167C198.102 162.733 198.701 164.347 199.19 165.996C199.754 168.218 199.777 170.651 200.982 172.593C201.809 173.814 202.913 174.811 204.199 175.498C208.636 178.097 213.986 178.643 219.058 178.019C224.131 177.394 228.997 175.678 233.846 173.965C234.918 173.638 235.946 173.176 236.906 172.588C240.245 170.353 240.988 165.771 241.611 161.736C242.306 157.233 243.233 152.744 244.878 148.511C245.855 145.996 247.118 143.439 246.903 140.735C246.903 140.708 246.894 140.68 246.894 140.653Z" fill="black"/>
<path opacity="0.1" d="M193.261 138.876C193.261 138.876 193.261 138.844 193.261 138.826C193.342 138.016 193.272 137.198 193.055 136.416C192.966 135.912 192.907 135.403 192.88 134.892C192.829 135.862 192.887 136.836 193.055 137.793C193.127 138.151 193.208 138.513 193.261 138.876Z" fill="black"/>
<path opacity="0.1" d="M194.628 127.648C194.973 127.055 195.364 126.491 195.797 125.963C194.977 126.766 193.463 126.05 193.145 124.935C193.027 125.386 193.027 125.861 193.145 126.312C193.255 126.649 193.45 126.95 193.711 127.184C193.971 127.419 194.288 127.579 194.628 127.648Z" fill="black"/>
</g>
<path opacity="0.1" d="M306.42 245.584C306.42 245.584 308.651 250.938 306.42 255.594C304.188 260.25 306.42 245.584 306.42 245.584Z" fill="black"/>
<path opacity="0.1" d="M312.271 251.046C312.271 251.046 312.716 257.91 311.714 259.128C310.712 260.346 312.271 251.046 312.271 251.046Z" fill="black"/>
<path d="M89.2485 180.957L134.864 180.046" stroke="#6C63FF" stroke-width="2" stroke-miterlimit="10"/>
<path d="M89.2485 186.418H134.864" stroke="#6C63FF" stroke-width="2" stroke-miterlimit="10"/>
<path d="M272.772 181.139H318.388" stroke="#6C63FF" stroke-width="2" stroke-miterlimit="10"/>
<path d="M272.772 187.51H318.388" stroke="#6C63FF" stroke-width="2" stroke-miterlimit="10"/>
<path d="M84.6536 82.8322L129.802 85.5629" stroke="#EBEBEB" stroke-width="2" stroke-miterlimit="10"/>
<path d="M83.7129 90.1142L128.861 92.8449" stroke="#EBEBEB" stroke-width="2" stroke-miterlimit="10"/>
<path d="M82.7722 100.127L127.921 102.858" stroke="#EBEBEB" stroke-width="2" stroke-miterlimit="10"/>
<path d="M81.8318 106.499L126.98 109.229" stroke="#EBEBEB" stroke-width="2" stroke-miterlimit="10"/>
<path d="M287.822 81.9219L336.733 79.1912" stroke="#EBEBEB" stroke-width="2" stroke-miterlimit="10"/>
<path d="M288.762 91.0244L337.673 88.2937" stroke="#EBEBEB" stroke-width="2" stroke-miterlimit="10"/>
</svg>
